<mxfile host="Electron" modified="2023-12-03T13:56:07.491Z" agent="Mozilla/5.0 (Windows NT 10.0; Win64; x64) AppleWebKit/537.36 (KHTML, like Gecko) draw.io/22.1.2 Chrome/114.0.5735.289 Electron/25.9.4 Safari/537.36" etag="aRYwFeDYQrlGzdu3mmUT" version="22.1.2" type="device">
  <diagram name="VPM+MFA" id="_mCaT6fkaAWZKvWD3mn1">
    <mxGraphModel dx="1247" dy="757" grid="1" gridSize="10" guides="1" tooltips="1" connect="1" arrows="1" fold="1" page="1" pageScale="1" pageWidth="1100" pageHeight="850" math="0" shadow="0">
      <root>
        <mxCell id="0" />
        <mxCell id="1" parent="0" />
        <mxCell id="Z2C5tBCkqBLaLcAhIviJ-15" style="edgeStyle=orthogonalEdgeStyle;rounded=0;orthogonalLoop=1;jettySize=auto;html=1;exitX=1;exitY=0.3333333333333333;exitDx=0;exitDy=0;exitPerimeter=0;fillColor=#f8cecc;strokeColor=#b85450;startArrow=oval;startFill=1;endArrow=oval;endFill=1;" edge="1" parent="1" source="Z2C5tBCkqBLaLcAhIviJ-1">
          <mxGeometry relative="1" as="geometry">
            <mxPoint x="430" y="415" as="targetPoint" />
          </mxGeometry>
        </mxCell>
        <mxCell id="Z2C5tBCkqBLaLcAhIviJ-1" value="Externo" style="shape=umlActor;verticalLabelPosition=bottom;verticalAlign=top;html=1;outlineConnect=0;fillColor=#f8cecc;strokeColor=#b85450;" vertex="1" parent="1">
          <mxGeometry x="250" y="385" width="50" height="90" as="geometry" />
        </mxCell>
        <mxCell id="Z2C5tBCkqBLaLcAhIviJ-5" style="edgeStyle=orthogonalEdgeStyle;rounded=0;orthogonalLoop=1;jettySize=auto;html=1;entryX=0.5;entryY=0;entryDx=0;entryDy=0;endArrow=none;endFill=0;fillColor=#ffe6cc;strokeColor=#d79b00;" edge="1" parent="1" source="Z2C5tBCkqBLaLcAhIviJ-3" target="Z2C5tBCkqBLaLcAhIviJ-4">
          <mxGeometry relative="1" as="geometry" />
        </mxCell>
        <mxCell id="Z2C5tBCkqBLaLcAhIviJ-6" value="&lt;font style=&quot;font-size: 27px;&quot;&gt;+&lt;/font&gt;" style="edgeLabel;html=1;align=center;verticalAlign=middle;resizable=0;points=[];" vertex="1" connectable="0" parent="Z2C5tBCkqBLaLcAhIviJ-5">
          <mxGeometry x="0.0996" y="-1" relative="1" as="geometry">
            <mxPoint as="offset" />
          </mxGeometry>
        </mxCell>
        <mxCell id="Z2C5tBCkqBLaLcAhIviJ-3" value="OpenVPN" style="shape=image;verticalLabelPosition=bottom;labelBackgroundColor=default;verticalAlign=top;aspect=fixed;imageAspect=0;image=https://upload.wikimedia.org/wikipedia/commons/thumb/f/f5/OpenVPN_logo.svg/512px-OpenVPN_logo.svg.png;clipPath=inset(0% 80.67% 0% 0%);" vertex="1" parent="1">
          <mxGeometry x="420" y="290" width="84" height="79.65517241379311" as="geometry" />
        </mxCell>
        <mxCell id="Z2C5tBCkqBLaLcAhIviJ-4" value="MFA" style="shape=image;verticalLabelPosition=bottom;labelBackgroundColor=default;verticalAlign=top;aspect=fixed;imageAspect=0;image=https://cdn-icons-png.flaticon.com/512/1035/1035361.png;" vertex="1" parent="1">
          <mxGeometry x="422" y="470" width="80" height="80" as="geometry" />
        </mxCell>
        <mxCell id="Z2C5tBCkqBLaLcAhIviJ-8" value="RED&lt;br&gt;EXTERNA" style="ellipse;shape=cloud;whiteSpace=wrap;html=1;fillColor=#dae8fc;strokeColor=#6c8ebf;" vertex="1" parent="1">
          <mxGeometry x="620" y="375" width="120" height="80" as="geometry" />
        </mxCell>
        <mxCell id="Z2C5tBCkqBLaLcAhIviJ-9" value="RED INTERNA" style="ellipse;shape=cloud;whiteSpace=wrap;html=1;fillColor=#dae8fc;strokeColor=#6c8ebf;" vertex="1" parent="1">
          <mxGeometry x="840" y="363" width="140" height="95" as="geometry" />
        </mxCell>
        <mxCell id="Z2C5tBCkqBLaLcAhIviJ-12" style="edgeStyle=orthogonalEdgeStyle;rounded=0;orthogonalLoop=1;jettySize=auto;html=1;exitX=1;exitY=0.25;exitDx=0;exitDy=0;entryX=0.25;entryY=0.25;entryDx=0;entryDy=0;entryPerimeter=0;endArrow=oval;endFill=1;startArrow=oval;startFill=1;fillColor=#ffe6cc;strokeColor=#d79b00;" edge="1" parent="1" target="Z2C5tBCkqBLaLcAhIviJ-8">
          <mxGeometry relative="1" as="geometry">
            <mxPoint x="502" y="332.5" as="sourcePoint" />
          </mxGeometry>
        </mxCell>
        <mxCell id="Z2C5tBCkqBLaLcAhIviJ-13" style="edgeStyle=orthogonalEdgeStyle;rounded=0;orthogonalLoop=1;jettySize=auto;html=1;exitX=1;exitY=0.75;exitDx=0;exitDy=0;entryX=0.31;entryY=0.8;entryDx=0;entryDy=0;entryPerimeter=0;endArrow=oval;endFill=1;startArrow=oval;startFill=1;fillColor=#ffe6cc;strokeColor=#d79b00;" edge="1" parent="1" target="Z2C5tBCkqBLaLcAhIviJ-8">
          <mxGeometry relative="1" as="geometry">
            <mxPoint x="502" y="497.5" as="sourcePoint" />
          </mxGeometry>
        </mxCell>
        <mxCell id="Z2C5tBCkqBLaLcAhIviJ-16" style="edgeStyle=orthogonalEdgeStyle;rounded=0;orthogonalLoop=1;jettySize=auto;html=1;exitX=0.875;exitY=0.5;exitDx=0;exitDy=0;exitPerimeter=0;entryX=0.16;entryY=0.55;entryDx=0;entryDy=0;entryPerimeter=0;fillColor=#dae8fc;strokeColor=#6c8ebf;startArrow=oval;startFill=1;endArrow=oval;endFill=1;" edge="1" parent="1" source="Z2C5tBCkqBLaLcAhIviJ-8" target="Z2C5tBCkqBLaLcAhIviJ-9">
          <mxGeometry relative="1" as="geometry" />
        </mxCell>
      </root>
    </mxGraphModel>
  </diagram>
</mxfile>
